<mxfile host="app.diagrams.net" modified="2021-06-18T01:36:29.610Z" agent="5.0 (Windows NT 10.0; Win64; x64) AppleWebKit/537.36 (KHTML, like Gecko) Chrome/91.0.4472.77 Safari/537.36" etag="3snijkH4hJK6KOOVP5-Z" version="14.7.10" type="github">
  <diagram id="5JaN1CiCvEepgImw7LRu" name="Page-1">
    <mxGraphModel dx="1422" dy="882" grid="1" gridSize="10" guides="1" tooltips="1" connect="1" arrows="1" fold="1" page="1" pageScale="1" pageWidth="827" pageHeight="1169" math="0" shadow="0">
      <root>
        <mxCell id="0" />
        <mxCell id="1" parent="0" />
        <mxCell id="wDC4hqzQodUpksadTZJr-20" value="Contract Service" style="shape=umlLifeline;perimeter=lifelinePerimeter;whiteSpace=wrap;html=1;container=1;collapsible=0;recursiveResize=0;outlineConnect=0;fillColor=#ffe6cc;strokeColor=#d79b00;" vertex="1" parent="1">
          <mxGeometry x="429" y="40" width="100" height="600" as="geometry" />
        </mxCell>
        <mxCell id="wDC4hqzQodUpksadTZJr-1" value="UI" style="shape=umlLifeline;perimeter=lifelinePerimeter;whiteSpace=wrap;html=1;container=1;collapsible=0;recursiveResize=0;outlineConnect=0;fillColor=#ffe6cc;strokeColor=#d79b00;" vertex="1" parent="1">
          <mxGeometry x="209" y="40" width="100" height="600" as="geometry" />
        </mxCell>
        <mxCell id="wDC4hqzQodUpksadTZJr-4" value="" style="html=1;points=[];perimeter=orthogonalPerimeter;fillColor=#ffe6cc;strokeColor=#d79b00;" vertex="1" parent="wDC4hqzQodUpksadTZJr-1">
          <mxGeometry x="45" y="80" width="10" height="90" as="geometry" />
        </mxCell>
        <mxCell id="wDC4hqzQodUpksadTZJr-3" value="Product Service" style="shape=umlLifeline;perimeter=lifelinePerimeter;whiteSpace=wrap;html=1;container=1;collapsible=0;recursiveResize=0;outlineConnect=0;fillColor=#ffe6cc;strokeColor=#d79b00;" vertex="1" parent="1">
          <mxGeometry x="649" y="40" width="100" height="600" as="geometry" />
        </mxCell>
        <mxCell id="wDC4hqzQodUpksadTZJr-8" value="" style="html=1;points=[];perimeter=orthogonalPerimeter;fillColor=#ffe6cc;strokeColor=#d79b00;" vertex="1" parent="wDC4hqzQodUpksadTZJr-3">
          <mxGeometry x="45" y="120" width="10" height="190" as="geometry" />
        </mxCell>
        <mxCell id="wDC4hqzQodUpksadTZJr-10" value="Location ID" style="html=1;verticalAlign=bottom;endArrow=block;" edge="1" parent="1" source="wDC4hqzQodUpksadTZJr-4">
          <mxGeometry x="-0.6087" width="80" relative="1" as="geometry">
            <mxPoint x="259" y="136" as="sourcePoint" />
            <mxPoint x="698.5" y="165" as="targetPoint" />
            <mxPoint as="offset" />
          </mxGeometry>
        </mxCell>
        <mxCell id="wDC4hqzQodUpksadTZJr-11" value="Item Case List" style="html=1;verticalAlign=bottom;endArrow=open;dashed=1;endSize=8;" edge="1" parent="1">
          <mxGeometry x="0.6051" relative="1" as="geometry">
            <mxPoint x="698.5" y="201" as="sourcePoint" />
            <mxPoint x="263" y="201" as="targetPoint" />
            <mxPoint x="1" as="offset" />
          </mxGeometry>
        </mxCell>
        <mxCell id="wDC4hqzQodUpksadTZJr-12" value="Contract Location&lt;br&gt;Selection Page" style="shape=umlActor;verticalLabelPosition=bottom;verticalAlign=top;html=1;fillColor=#d5e8d4;strokeColor=#82b366;" vertex="1" parent="1">
          <mxGeometry x="79" y="90" width="30" height="60" as="geometry" />
        </mxCell>
        <mxCell id="wDC4hqzQodUpksadTZJr-13" value="View Items" style="html=1;verticalAlign=bottom;endArrow=block;exitX=0.5;exitY=0.5;exitDx=0;exitDy=0;exitPerimeter=0;" edge="1" parent="1" source="wDC4hqzQodUpksadTZJr-12">
          <mxGeometry width="80" relative="1" as="geometry">
            <mxPoint x="149" y="120" as="sourcePoint" />
            <mxPoint x="258.5" y="120" as="targetPoint" />
          </mxGeometry>
        </mxCell>
        <mxCell id="wDC4hqzQodUpksadTZJr-14" value="" style="html=1;points=[];perimeter=orthogonalPerimeter;fillColor=#ffe6cc;strokeColor=#d79b00;" vertex="1" parent="1">
          <mxGeometry x="254" y="270" width="10" height="90" as="geometry" />
        </mxCell>
        <mxCell id="wDC4hqzQodUpksadTZJr-15" value="Contract Overview Page" style="shape=umlActor;verticalLabelPosition=bottom;verticalAlign=top;html=1;fillColor=#d5e8d4;strokeColor=#82b366;" vertex="1" parent="1">
          <mxGeometry x="79" y="240" width="30" height="60" as="geometry" />
        </mxCell>
        <mxCell id="wDC4hqzQodUpksadTZJr-16" value="View Items" style="html=1;verticalAlign=bottom;endArrow=block;exitX=0.5;exitY=0.5;exitDx=0;exitDy=0;exitPerimeter=0;" edge="1" parent="1" source="wDC4hqzQodUpksadTZJr-15">
          <mxGeometry width="80" relative="1" as="geometry">
            <mxPoint x="149" y="270" as="sourcePoint" />
            <mxPoint x="258.5" y="270" as="targetPoint" />
          </mxGeometry>
        </mxCell>
        <mxCell id="wDC4hqzQodUpksadTZJr-18" value="Location ID List" style="html=1;verticalAlign=bottom;endArrow=block;" edge="1" parent="1" source="wDC4hqzQodUpksadTZJr-14">
          <mxGeometry x="-0.6087" width="80" relative="1" as="geometry">
            <mxPoint x="265" y="285.47" as="sourcePoint" />
            <mxPoint x="698.5" y="315" as="targetPoint" />
            <mxPoint as="offset" />
          </mxGeometry>
        </mxCell>
        <mxCell id="wDC4hqzQodUpksadTZJr-19" value="Item Case List" style="html=1;verticalAlign=bottom;endArrow=open;dashed=1;endSize=8;" edge="1" parent="1">
          <mxGeometry x="0.6087" relative="1" as="geometry">
            <mxPoint x="698.5" y="350" as="sourcePoint" />
            <mxPoint x="264" y="350" as="targetPoint" />
            <mxPoint as="offset" />
          </mxGeometry>
        </mxCell>
        <mxCell id="wDC4hqzQodUpksadTZJr-22" value="" style="html=1;points=[];perimeter=orthogonalPerimeter;fillColor=#f8cecc;strokeColor=#b85450;" vertex="1" parent="1">
          <mxGeometry x="694" y="370" width="10" height="250" as="geometry" />
        </mxCell>
        <mxCell id="wDC4hqzQodUpksadTZJr-23" value="Regular QD Contract" style="shape=umlActor;verticalLabelPosition=bottom;verticalAlign=top;html=1;fillColor=#d5e8d4;strokeColor=#82b366;" vertex="1" parent="1">
          <mxGeometry x="79" y="370" width="30" height="60" as="geometry" />
        </mxCell>
        <mxCell id="wDC4hqzQodUpksadTZJr-25" value="" style="html=1;points=[];perimeter=orthogonalPerimeter;fillColor=#ffe6cc;strokeColor=#d79b00;" vertex="1" parent="1">
          <mxGeometry x="474" y="395" width="10" height="90" as="geometry" />
        </mxCell>
        <mxCell id="wDC4hqzQodUpksadTZJr-26" value="Contract Breakdown" style="html=1;verticalAlign=bottom;endArrow=block;exitX=0.5;exitY=0.5;exitDx=0;exitDy=0;exitPerimeter=0;" edge="1" parent="1" source="wDC4hqzQodUpksadTZJr-23">
          <mxGeometry x="-0.4538" width="80" relative="1" as="geometry">
            <mxPoint x="289" y="439.5" as="sourcePoint" />
            <mxPoint x="478.5" y="400" as="targetPoint" />
            <mxPoint as="offset" />
          </mxGeometry>
        </mxCell>
        <mxCell id="wDC4hqzQodUpksadTZJr-27" value="Selected Item Ids" style="html=1;verticalAlign=bottom;endArrow=block;" edge="1" parent="1">
          <mxGeometry x="-0.3591" width="80" relative="1" as="geometry">
            <mxPoint x="478.5" y="420" as="sourcePoint" />
            <mxPoint x="698.5" y="420" as="targetPoint" />
            <mxPoint x="1" as="offset" />
            <Array as="points">
              <mxPoint x="629" y="420" />
            </Array>
          </mxGeometry>
        </mxCell>
        <mxCell id="wDC4hqzQodUpksadTZJr-28" value="Item Case List" style="html=1;verticalAlign=bottom;endArrow=open;dashed=1;endSize=8;" edge="1" parent="1">
          <mxGeometry x="0.3591" relative="1" as="geometry">
            <mxPoint x="698.5" y="480" as="sourcePoint" />
            <mxPoint x="478.5" y="480" as="targetPoint" />
            <mxPoint x="1" as="offset" />
            <Array as="points">
              <mxPoint x="559" y="480" />
            </Array>
          </mxGeometry>
        </mxCell>
        <mxCell id="wDC4hqzQodUpksadTZJr-29" value="" style="html=1;points=[];perimeter=orthogonalPerimeter;fillColor=#ffe6cc;strokeColor=#d79b00;" vertex="1" parent="1">
          <mxGeometry x="474" y="531" width="10" height="90" as="geometry" />
        </mxCell>
        <mxCell id="wDC4hqzQodUpksadTZJr-30" value="Regular QD Contract" style="shape=umlActor;verticalLabelPosition=bottom;verticalAlign=top;html=1;fillColor=#d5e8d4;strokeColor=#82b366;" vertex="1" parent="1">
          <mxGeometry x="79" y="508" width="30" height="60" as="geometry" />
        </mxCell>
        <mxCell id="wDC4hqzQodUpksadTZJr-31" value="Workflow Rules Executing" style="html=1;verticalAlign=bottom;endArrow=block;exitX=0.5;exitY=0.5;exitDx=0;exitDy=0;exitPerimeter=0;" edge="1" parent="1" source="wDC4hqzQodUpksadTZJr-30">
          <mxGeometry x="-0.4538" width="80" relative="1" as="geometry">
            <mxPoint x="119" y="537.5" as="sourcePoint" />
            <mxPoint x="478.5" y="538" as="targetPoint" />
            <mxPoint as="offset" />
          </mxGeometry>
        </mxCell>
        <mxCell id="wDC4hqzQodUpksadTZJr-32" value="Selected Item Ids" style="html=1;verticalAlign=bottom;endArrow=block;" edge="1" parent="1">
          <mxGeometry x="-0.3591" width="80" relative="1" as="geometry">
            <mxPoint x="478.5" y="561" as="sourcePoint" />
            <mxPoint x="698.5" y="561" as="targetPoint" />
            <mxPoint x="1" as="offset" />
            <Array as="points">
              <mxPoint x="624.5" y="561" />
            </Array>
          </mxGeometry>
        </mxCell>
        <mxCell id="wDC4hqzQodUpksadTZJr-33" value="Item Case List" style="html=1;verticalAlign=bottom;endArrow=open;dashed=1;endSize=8;" edge="1" parent="1">
          <mxGeometry x="0.3591" relative="1" as="geometry">
            <mxPoint x="698.5" y="616" as="sourcePoint" />
            <mxPoint x="478.5" y="616" as="targetPoint" />
            <mxPoint x="1" as="offset" />
            <Array as="points">
              <mxPoint x="599" y="616" />
              <mxPoint x="540" y="616" />
            </Array>
          </mxGeometry>
        </mxCell>
      </root>
    </mxGraphModel>
  </diagram>
</mxfile>
